<?xml version="1.0" encoding="utf-8"?>
<!-- Generator: Adobe Illustrator 24.1.3, SVG Export Plug-In . SVG Version: 6.00 Build 0)  -->
<svg version="1.1" id="圖層_1" xmlns="http://www.w3.org/2000/svg" xmlns:xlink="http://www.w3.org/1999/xlink" x="0px" y="0px"
	 viewBox="0 0 100 100" style="enable-background:new 0 0 100 100;" xml:space="preserve">
<style type="text/css">
	.st0{fill:#211613;}
</style>
<g>
	<path class="st0" d="M55.4,28.7c0.6-0.9,2-1.4,4-1.4c1.7,0,4,0.3,6,0.9l1.7-9.4C63.7,17.6,59.7,17,56,17c-4,0-6.9,0.6-9.1,2
		c-2.6,1.4-4,2.9-5.1,5.1c-0.9,2-1.4,5.4-1.4,9.4V37H33v10.9h7.4v34c3.1,0.6,6.3,1.1,9.7,1.1c1.1,0,2.6,0,4-0.3V48.1h10V37.3H54
		v-3.4C54.3,31,54.6,29.6,55.4,28.7z"/>
</g>
</svg>
