<?xml version="1.0" encoding="utf-8"?>
<!-- Generator: Adobe Illustrator 24.1.3, SVG Export Plug-In . SVG Version: 6.00 Build 0)  -->
<svg version="1.1" id="圖層_1" xmlns="http://www.w3.org/2000/svg" xmlns:xlink="http://www.w3.org/1999/xlink" x="0px" y="0px"
	 viewBox="0 0 100 100" style="enable-background:new 0 0 100 100;" xml:space="preserve">
<style type="text/css">
	.st0{fill-rule:evenodd;clip-rule:evenodd;fill:#211613;}
</style>
<g>
	<path class="st0" d="M70.1,23c-13.1,0-26.6,0-39.7,0c-4.9,0-7.4,2.3-7.4,7.1c0,6.6,0,13.1,0,19.7s0,13.1,0,20
		c0,4.6,2.6,7.1,6.9,7.1c13.4,0,26.6,0,40,0c4.6,0,7.1-2.6,7.1-7.1c0-13.1,0-26.3,0-39.7C77.3,25.3,74.7,23,70.1,23z M65.6,29
		c5.4,0,5.4,0,5.4,5.4c0,5.1,0,5.1-5.4,5.1s-5.4,0-5.4-5.4C60.4,29,60.4,29,65.6,29z M50.1,39.3c5.7,0,10.6,4.9,10.3,10.6
		c0,5.7-4.9,10.6-10.6,10.3c-5.7,0-10.6-4.9-10.3-10.6C39.8,44.1,44.4,39.3,50.1,39.3z M71,67.6c0,2.6-0.6,3.1-3.1,3.1
		c-6,0-11.7,0-17.7,0s-11.7,0-17.7,0c-2.6,0-3.1-0.6-3.1-3.1c0-6.3,0-13.1,0-19.7c0-1.7,0.6-2.3,2.3-2.3c2.6,0.3,2.6,0,2.3,2.6
		c-0.9,8.3,4.9,16.3,13.1,18c8.6,1.7,16.9-3.4,19.4-11.4c0.6-2.6,0.9-5.1,0.3-7.7c-0.3-0.9,0-1.1,0.9-1.1c3.7-0.3,3.7-0.3,3.7,3.4
		C71,55.3,71,61.3,71,67.6z"/>
</g>
</svg>
